<svg width="398" height="398" viewBox="0 0 398 398" fill="none" xmlns="http://www.w3.org/2000/svg">
<mask id="mask0_1_859" style="mask-type:luminance" maskUnits="userSpaceOnUse" x="0" y="0" width="398" height="398">
<path d="M342.592 0H55C24.6243 0 0 24.6243 0 55V342.592C0 372.968 24.6243 397.592 55 397.592H342.592C372.968 397.592 397.592 372.968 397.592 342.592V55C397.592 24.6243 372.968 0 342.592 0Z" fill="white"/>
</mask>
<g mask="url(#mask0_1_859)">
<path d="M342.592 0H55C24.6243 0 0 24.6243 0 55V342.592C0 372.968 24.6243 397.592 55 397.592H342.592C372.968 397.592 397.592 372.968 397.592 342.592V55C397.592 24.6243 372.968 0 342.592 0Z" fill="#F0771F"/>
<path fill-rule="evenodd" clip-rule="evenodd" d="M636.087 233.625L599.646 203.015C563.205 172.404 490.323 111.183 417.442 84.946C344.56 58.7085 271.678 67.4543 198.796 84.946C125.914 102.438 53.0322 128.675 -19.8496 133.048C-92.7315 137.421 -165.613 119.929 -202.054 111.183L-238.495 102.438V259.862H-202.054C-165.613 259.862 -92.7315 259.862 -19.8496 259.862C53.0322 259.862 125.914 259.862 198.796 259.862C271.678 259.862 344.56 259.862 417.442 259.862C490.323 259.862 563.205 259.862 599.646 259.862H636.087V233.625Z" fill="#FF006E"/>
<path fill-rule="evenodd" clip-rule="evenodd" d="M-303.633 156.743L-261.764 181.865C-219.894 206.986 -136.156 257.229 -52.4182 247.181C31.32 237.132 115.058 166.792 198.797 156.743C282.535 146.695 366.273 196.938 450.011 212.011C533.749 227.084 617.488 206.986 659.357 196.938L701.226 186.889V337.618H659.357C617.488 337.618 533.749 337.618 450.011 337.618C366.273 337.618 282.535 337.618 198.797 337.618C115.058 337.618 31.32 337.618 -52.4182 337.618C-136.156 337.618 -219.894 337.618 -261.764 337.618H-303.633V156.743Z" fill="#B794F6"/>
<path fill-rule="evenodd" clip-rule="evenodd" d="M-86.5117 288.596L-60.4332 301.113C-34.3547 313.631 17.8024 338.667 69.9595 329.278C122.117 319.89 174.274 276.078 226.431 257.302C278.588 238.525 330.745 244.784 382.902 266.69C435.059 288.596 487.216 326.149 513.295 344.925L539.373 363.702V401.255H513.295C487.216 401.255 435.059 401.255 382.902 401.255C330.745 401.255 278.588 401.255 226.431 401.255C174.274 401.255 122.117 401.255 69.9595 401.255C17.8024 401.255 -34.3547 401.255 -60.4332 401.255H-86.5117V288.596Z" fill="#7C3AED"/>
</g>
</svg>
